<svg width="200" height="200" viewBox="0 0 200 200" fill="none" xmlns="http://www.w3.org/2000/svg">
<circle cx="100" cy="100" r="100" fill="black"/>
<path d="M88.9766 42.1684C88.9766 39.1949 92.5929 37.7295 94.6629 39.8642L144.485 91.245C145.74 92.5403 146.443 94.2736 146.443 96.0778V157.689C146.443 160.662 142.827 162.128 140.757 159.993L90.9349 108.612C89.6789 107.317 88.9766 105.583 88.9766 103.779V42.1684Z" fill="#BCBCBC"/>
<path d="M53 42.1684C53 39.1949 56.6163 37.7295 58.6863 39.8642L108.508 91.245C109.764 92.5403 110.466 94.2736 110.466 96.0778V157.689C110.466 160.662 106.85 162.128 104.78 159.993L54.9583 108.612C53.7024 107.317 53 105.583 53 103.779V42.1684Z" fill="white"/>
</svg>
