<svg width="1455" height="571" viewBox="0 0 1455 571" fill="none" xmlns="http://www.w3.org/2000/svg">
<rect width="1455" height="571" fill="black"/>
<path d="M1057.25 280.5C1121.45 280.5 1173.5 228.453 1173.5 164.25C1173.5 100.047 1121.45 48 1057.25 48C993.047 48 941 100.047 941 164.25C941 228.453 993.047 280.5 1057.25 280.5Z" fill="#80BA4D"/>
<path d="M1318.81 193.312C1350.91 193.312 1376.94 167.289 1376.94 135.188C1376.94 103.086 1350.91 77.0625 1318.81 77.0625C1286.71 77.0625 1260.69 103.086 1260.69 135.188C1260.69 167.289 1286.71 193.312 1318.81 193.312Z" fill="#A53FDD"/>
<path d="M1028.19 513C1060.29 513 1086.31 486.976 1086.31 454.875C1086.31 422.774 1060.29 396.75 1028.19 396.75C996.086 396.75 970.062 422.774 970.062 454.875C970.062 486.976 996.086 513 1028.19 513Z" fill="#4F7CB6"/>
<path d="M1289.75 542.062C1353.95 542.062 1406 490.016 1406 425.812C1406 361.609 1353.95 309.562 1289.75 309.562C1225.55 309.562 1173.5 361.609 1173.5 425.812C1173.5 490.016 1225.55 542.062 1289.75 542.062Z" fill="#C75B3A"/>
<path d="M63.4 167H80.2L108.4 216V167H123.6V238H106.6L78.6 190.7V238H63.4V167ZM161.509 239.2C156.109 239.2 151.376 238.067 147.309 235.8C143.243 233.467 140.076 230.2 137.809 226C135.609 221.733 134.509 216.8 134.509 211.2C134.509 205.6 135.609 200.7 137.809 196.5C140.009 192.233 143.143 188.967 147.209 186.7C151.276 184.367 156.009 183.2 161.409 183.2C166.676 183.2 171.276 184.367 175.209 186.7C179.209 189.033 182.276 192.4 184.409 196.8C186.543 201.133 187.609 206.267 187.609 212.2V215.2H150.009C150.143 219.333 151.243 222.467 153.309 224.6C155.376 226.733 158.209 227.8 161.809 227.8C167.009 227.8 170.343 225.633 171.809 221.3L186.909 222.2C185.443 227.533 182.443 231.7 177.909 234.7C173.443 237.7 167.976 239.2 161.509 239.2ZM172.309 206C172.109 202.2 171.043 199.3 169.109 197.3C167.176 195.3 164.609 194.3 161.409 194.3C158.276 194.3 155.676 195.333 153.609 197.4C151.609 199.467 150.409 202.333 150.009 206H172.309ZM221.666 239.2C216.266 239.2 211.532 238.067 207.466 235.8C203.399 233.467 200.232 230.2 197.966 226C195.766 221.733 194.666 216.8 194.666 211.2C194.666 205.6 195.766 200.7 197.966 196.5C200.166 192.233 203.299 188.967 207.366 186.7C211.432 184.367 216.166 183.2 221.566 183.2C226.832 183.2 231.432 184.367 235.366 186.7C239.366 189.033 242.432 192.4 244.566 196.8C246.699 201.133 247.766 206.267 247.766 212.2V215.2H210.166C210.299 219.333 211.399 222.467 213.466 224.6C215.532 226.733 218.366 227.8 221.966 227.8C227.166 227.8 230.499 225.633 231.966 221.3L247.066 222.2C245.599 227.533 242.599 231.7 238.066 234.7C233.599 237.7 228.132 239.2 221.666 239.2ZM232.466 206C232.266 202.2 231.199 199.3 229.266 197.3C227.332 195.3 224.766 194.3 221.566 194.3C218.432 194.3 215.832 195.333 213.766 197.4C211.766 199.467 210.566 202.333 210.166 206H232.466ZM276.722 239.2C272.255 239.2 268.355 238.067 265.022 235.8C261.755 233.533 259.222 230.3 257.422 226.1C255.689 221.833 254.822 216.867 254.822 211.2C254.822 205.533 255.722 200.6 257.522 196.4C259.322 192.2 261.855 188.967 265.122 186.7C268.455 184.367 272.322 183.2 276.722 183.2C280.522 183.2 283.822 183.967 286.622 185.5C289.422 187.033 291.522 189.2 292.922 192V167H307.922V238H293.522L293.222 230.1C291.755 232.967 289.555 235.2 286.622 236.8C283.755 238.4 280.455 239.2 276.722 239.2ZM281.722 227.7C285.322 227.7 288.089 226.3 290.022 223.5C291.955 220.7 292.922 216.6 292.922 211.2C292.922 205.8 291.955 201.7 290.022 198.9C288.089 196.1 285.322 194.7 281.722 194.7C278.189 194.7 275.389 196.2 273.322 199.2C271.255 202.133 270.222 206.133 270.222 211.2C270.222 216.2 271.255 220.2 273.322 223.2C275.455 226.2 278.255 227.7 281.722 227.7ZM359.95 239.2C354.283 239.2 349.717 237.9 346.25 235.3C342.85 232.7 341.15 229.133 341.15 224.6C341.15 220 342.583 216.4 345.45 213.8C348.317 211.133 352.75 209.2 358.75 208L376.05 204.6C376.05 197.6 372.983 194.1 366.85 194.1C361.317 194.1 358.05 196.667 357.05 201.8L342.05 201.1C343.05 195.233 345.683 190.8 349.95 187.8C354.217 184.733 359.85 183.2 366.85 183.2C374.85 183.2 380.883 185.1 384.95 188.9C389.017 192.7 391.05 198.267 391.05 205.6V223.9C391.05 225.367 391.283 226.367 391.75 226.9C392.217 227.433 392.983 227.7 394.05 227.7H395.55V238C394.217 238.4 392.417 238.6 390.15 238.6C383.483 238.6 379.583 235.7 378.45 229.9C377.05 232.767 374.717 235.033 371.45 236.7C368.25 238.367 364.417 239.2 359.95 239.2ZM363.55 228.9C367.35 228.9 370.383 227.8 372.65 225.6C374.917 223.4 376.05 220.4 376.05 216.6V214L363.85 216.6C358.983 217.6 356.55 219.8 356.55 223.2C356.55 225 357.15 226.4 358.35 227.4C359.55 228.4 361.283 228.9 363.55 228.9ZM62.6 308.4H77L77.2 316.5C78.7333 313.5 80.8667 311.2 83.6 309.6C86.4 308 89.5667 307.2 93.1 307.2C97.9667 307.2 102.1 308.433 105.5 310.9C108.9 313.3 111.433 316.633 113.1 320.9C114.833 325.1 115.7 329.867 115.7 335.2C115.7 340.533 114.833 345.333 113.1 349.6C111.367 353.8 108.8 357.133 105.4 359.6C102 362 97.8667 363.2 93 363.2C89.6667 363.2 86.6333 362.433 83.9 360.9C81.1667 359.367 79.0667 357.267 77.6 354.6V377H62.6V308.4ZM88.9 351.7C92.4333 351.7 95.2 350.233 97.2 347.3C99.2667 344.3 100.3 340.267 100.3 335.2C100.3 330.133 99.2667 326.133 97.2 323.2C95.2 320.2 92.4333 318.7 88.9 318.7C85.3667 318.7 82.6 320.133 80.6 323C78.6 325.8 77.6 329.867 77.6 335.2C77.6 340.533 78.5667 344.633 80.5 347.5C82.5 350.3 85.3 351.7 88.9 351.7ZM125.295 308.4H139.495L139.795 319.2C140.862 315.4 142.429 312.667 144.495 311C146.562 309.267 149.262 308.4 152.595 308.4H157.495V320.8H152.595C148.329 320.8 145.195 321.667 143.195 323.4C141.262 325.133 140.295 327.967 140.295 331.9V362H125.295V308.4ZM188.76 363.2C183.36 363.2 178.593 362.067 174.46 359.8C170.327 357.467 167.127 354.2 164.86 350C162.66 345.733 161.56 340.8 161.56 335.2C161.56 329.6 162.693 324.7 164.96 320.5C167.227 316.233 170.393 312.967 174.46 310.7C178.593 308.367 183.36 307.2 188.76 307.2C194.16 307.2 198.893 308.367 202.96 310.7C207.093 312.967 210.293 316.233 212.56 320.5C214.827 324.7 215.96 329.6 215.96 335.2C215.96 340.8 214.827 345.733 212.56 350C210.36 354.2 207.193 357.467 203.06 359.8C198.927 362.067 194.16 363.2 188.76 363.2ZM188.76 351.7C192.493 351.7 195.36 350.267 197.36 347.4C199.427 344.467 200.46 340.4 200.46 335.2C200.46 330 199.427 325.967 197.36 323.1C195.36 320.167 192.493 318.7 188.76 318.7C185.027 318.7 182.127 320.167 180.06 323.1C177.993 325.967 176.96 330 176.96 335.2C176.96 340.4 177.993 344.467 180.06 347.4C182.127 350.267 185.027 351.7 188.76 351.7ZM230.314 307.7C230.314 302.3 231.781 298.167 234.714 295.3C237.647 292.433 242.081 291 248.014 291H259.414V302.2H251.214C249.147 302.2 247.647 302.733 246.714 303.8C245.781 304.8 245.314 306.333 245.314 308.4V310.4H258.614V321.6H245.314V362H230.314V321.6H222.514V310.4H230.314V307.7ZM290.611 363.2C285.211 363.2 280.478 362.067 276.411 359.8C272.344 357.467 269.178 354.2 266.911 350C264.711 345.733 263.611 340.8 263.611 335.2C263.611 329.6 264.711 324.7 266.911 320.5C269.111 316.233 272.244 312.967 276.311 310.7C280.378 308.367 285.111 307.2 290.511 307.2C295.778 307.2 300.378 308.367 304.311 310.7C308.311 313.033 311.378 316.4 313.511 320.8C315.644 325.133 316.711 330.267 316.711 336.2V339.2H279.111C279.244 343.333 280.344 346.467 282.411 348.6C284.478 350.733 287.311 351.8 290.911 351.8C296.111 351.8 299.444 349.633 300.911 345.3L316.011 346.2C314.544 351.533 311.544 355.7 307.011 358.7C302.544 361.7 297.078 363.2 290.611 363.2ZM301.411 330C301.211 326.2 300.144 323.3 298.211 321.3C296.278 319.3 293.711 318.3 290.511 318.3C287.378 318.3 284.778 319.333 282.711 321.4C280.711 323.467 279.511 326.333 279.111 330H301.411ZM349.467 363.2C341.467 363.2 335.267 361.567 330.867 358.3C326.534 354.967 324.167 350.567 323.767 345.1L338.967 344.6C339.901 349.933 343.434 352.6 349.567 352.6C352.301 352.6 354.401 352.167 355.867 351.3C357.334 350.367 358.067 349.033 358.067 347.3C358.067 346.1 357.767 345.133 357.167 344.4C356.634 343.667 355.567 343.033 353.967 342.5C352.434 341.9 350.167 341.367 347.167 340.9C341.501 339.967 337.067 338.833 333.867 337.5C330.667 336.1 328.401 334.367 327.067 332.3C325.734 330.233 325.067 327.6 325.067 324.4C325.067 319.133 327.101 314.967 331.167 311.9C335.234 308.767 341.134 307.2 348.867 307.2C356.134 307.2 361.801 308.867 365.867 312.2C370.001 315.533 372.401 320 373.067 325.6L358.067 326.2C357.734 323.533 356.734 321.467 355.067 320C353.467 318.533 351.334 317.8 348.667 317.8C346.067 317.8 344.034 318.333 342.567 319.4C341.167 320.467 340.467 321.933 340.467 323.8C340.467 325.733 341.201 327.2 342.667 328.2C344.134 329.133 346.734 329.867 350.467 330.4C356.201 331.2 360.734 332.3 364.067 333.7C367.401 335.1 369.801 336.867 371.267 339C372.734 341.133 373.467 343.8 373.467 347C373.467 352.133 371.334 356.133 367.067 359C362.801 361.8 356.934 363.2 349.467 363.2ZM406.205 363.2C398.205 363.2 392.005 361.567 387.605 358.3C383.272 354.967 380.905 350.567 380.505 345.1L395.705 344.6C396.639 349.933 400.172 352.6 406.305 352.6C409.039 352.6 411.139 352.167 412.605 351.3C414.072 350.367 414.805 349.033 414.805 347.3C414.805 346.1 414.505 345.133 413.905 344.4C413.372 343.667 412.305 343.033 410.705 342.5C409.172 341.9 406.905 341.367 403.905 340.9C398.239 339.967 393.805 338.833 390.605 337.5C387.405 336.1 385.139 334.367 383.805 332.3C382.472 330.233 381.805 327.6 381.805 324.4C381.805 319.133 383.839 314.967 387.905 311.9C391.972 308.767 397.872 307.2 405.605 307.2C412.872 307.2 418.539 308.867 422.605 312.2C426.739 315.533 429.139 320 429.805 325.6L414.805 326.2C414.472 323.533 413.472 321.467 411.805 320C410.205 318.533 408.072 317.8 405.405 317.8C402.805 317.8 400.772 318.333 399.305 319.4C397.905 320.467 397.205 321.933 397.205 323.8C397.205 325.733 397.939 327.2 399.405 328.2C400.872 329.133 403.472 329.867 407.205 330.4C412.939 331.2 417.472 332.3 420.805 333.7C424.139 335.1 426.539 336.867 428.005 339C429.472 341.133 430.205 343.8 430.205 347C430.205 352.133 428.072 356.133 423.805 359C419.539 361.8 413.672 363.2 406.205 363.2ZM439.455 308.4H454.455V362H439.455V308.4ZM439.155 289.8H454.655V301.8H439.155V289.8ZM491.69 363.2C486.29 363.2 481.523 362.067 477.39 359.8C473.257 357.467 470.057 354.2 467.79 350C465.59 345.733 464.49 340.8 464.49 335.2C464.49 329.6 465.623 324.7 467.89 320.5C470.157 316.233 473.323 312.967 477.39 310.7C481.523 308.367 486.29 307.2 491.69 307.2C497.09 307.2 501.823 308.367 505.89 310.7C510.023 312.967 513.223 316.233 515.49 320.5C517.757 324.7 518.89 329.6 518.89 335.2C518.89 340.8 517.757 345.733 515.49 350C513.29 354.2 510.123 357.467 505.99 359.8C501.857 362.067 497.09 363.2 491.69 363.2ZM491.69 351.7C495.423 351.7 498.29 350.267 500.29 347.4C502.357 344.467 503.39 340.4 503.39 335.2C503.39 330 502.357 325.967 500.29 323.1C498.29 320.167 495.423 318.7 491.69 318.7C487.957 318.7 485.057 320.167 482.99 323.1C480.923 325.967 479.89 330 479.89 335.2C479.89 340.4 480.923 344.467 482.99 347.4C485.057 350.267 487.957 351.7 491.69 351.7ZM528.518 308.4H542.018L542.318 317.2C545.118 310.533 550.418 307.2 558.218 307.2C563.951 307.2 568.418 309.033 571.618 312.7C574.818 316.3 576.418 321.233 576.418 327.5V362H561.418V332.5C561.418 327.967 560.785 324.6 559.518 322.4C558.318 320.2 556.218 319.1 553.218 319.1C550.085 319.1 547.685 320.267 546.018 322.6C544.351 324.933 543.518 328.233 543.518 332.5V362H528.518V308.4ZM604.481 363.2C598.815 363.2 594.248 361.9 590.781 359.3C587.381 356.7 585.681 353.133 585.681 348.6C585.681 344 587.115 340.4 589.981 337.8C592.848 335.133 597.281 333.2 603.281 332L620.581 328.6C620.581 321.6 617.515 318.1 611.381 318.1C605.848 318.1 602.581 320.667 601.581 325.8L586.581 325.1C587.581 319.233 590.215 314.8 594.481 311.8C598.748 308.733 604.381 307.2 611.381 307.2C619.381 307.2 625.415 309.1 629.481 312.9C633.548 316.7 635.581 322.267 635.581 329.6V347.9C635.581 349.367 635.815 350.367 636.281 350.9C636.748 351.433 637.515 351.7 638.581 351.7H640.081V362C638.748 362.4 636.948 362.6 634.681 362.6C628.015 362.6 624.115 359.7 622.981 353.9C621.581 356.767 619.248 359.033 615.981 360.7C612.781 362.367 608.948 363.2 604.481 363.2ZM608.081 352.9C611.881 352.9 614.915 351.8 617.181 349.6C619.448 347.4 620.581 344.4 620.581 340.6V338L608.381 340.6C603.515 341.6 601.081 343.8 601.081 347.2C601.081 349 601.681 350.4 602.881 351.4C604.081 352.4 605.815 352.9 608.081 352.9ZM662.538 362C653.204 362 648.537 357.333 648.537 348V291H663.538V346.4C663.538 347.933 663.871 349.067 664.538 349.8C665.271 350.467 666.371 350.8 667.838 350.8H671.438V362H662.538ZM58.1 432.4H73.2L82.5 468.7L92.3 432.4H104.6L114.5 468.7L123.8 432.4H138.9L123 486H108.4L98.5 452.5L88.6 486H74.1L58.1 432.4ZM169.127 487.2C163.727 487.2 158.993 486.067 154.927 483.8C150.86 481.467 147.693 478.2 145.427 474C143.227 469.733 142.127 464.8 142.127 459.2C142.127 453.6 143.227 448.7 145.427 444.5C147.627 440.233 150.76 436.967 154.827 434.7C158.893 432.367 163.627 431.2 169.027 431.2C174.293 431.2 178.893 432.367 182.827 434.7C186.827 437.033 189.893 440.4 192.027 444.8C194.16 449.133 195.227 454.267 195.227 460.2V463.2H157.627C157.76 467.333 158.86 470.467 160.927 472.6C162.993 474.733 165.827 475.8 169.427 475.8C174.627 475.8 177.96 473.633 179.427 469.3L194.527 470.2C193.06 475.533 190.06 479.7 185.527 482.7C181.06 485.7 175.593 487.2 169.127 487.2ZM179.927 454C179.727 450.2 178.66 447.3 176.727 445.3C174.793 443.3 172.227 442.3 169.027 442.3C165.893 442.3 163.293 443.333 161.227 445.4C159.227 447.467 158.027 450.333 157.627 454H179.927ZM235.295 487.2C231.561 487.2 228.295 486.433 225.495 484.9C222.761 483.3 220.628 481.033 219.095 478.1L218.795 486H204.495V415H219.495V440C220.961 437.4 223.061 435.3 225.795 433.7C228.595 432.033 231.761 431.2 235.295 431.2C239.761 431.2 243.661 432.367 246.995 434.7C250.395 436.967 252.995 440.233 254.795 444.5C256.661 448.7 257.595 453.6 257.595 459.2C257.595 464.8 256.661 469.733 254.795 474C252.995 478.2 250.395 481.467 246.995 483.8C243.661 486.067 239.761 487.2 235.295 487.2ZM231.095 475.7C234.495 475.7 237.195 474.233 239.195 471.3C241.195 468.367 242.195 464.333 242.195 459.2C242.195 454.067 241.195 450.033 239.195 447.1C237.261 444.167 234.595 442.7 231.195 442.7C227.528 442.7 224.661 444.167 222.595 447.1C220.528 449.967 219.495 454 219.495 459.2C219.495 464.333 220.495 468.367 222.495 471.3C224.561 474.233 227.428 475.7 231.095 475.7ZM290.288 487.2C282.288 487.2 276.088 485.567 271.688 482.3C267.354 478.967 264.988 474.567 264.588 469.1L279.788 468.6C280.721 473.933 284.254 476.6 290.388 476.6C293.121 476.6 295.221 476.167 296.688 475.3C298.154 474.367 298.888 473.033 298.888 471.3C298.888 470.1 298.588 469.133 297.988 468.4C297.454 467.667 296.388 467.033 294.788 466.5C293.254 465.9 290.988 465.367 287.988 464.9C282.321 463.967 277.888 462.833 274.688 461.5C271.488 460.1 269.221 458.367 267.888 456.3C266.554 454.233 265.888 451.6 265.888 448.4C265.888 443.133 267.921 438.967 271.988 435.9C276.054 432.767 281.954 431.2 289.688 431.2C296.954 431.2 302.621 432.867 306.688 436.2C310.821 439.533 313.221 444 313.888 449.6L298.888 450.2C298.554 447.533 297.554 445.467 295.888 444C294.288 442.533 292.154 441.8 289.488 441.8C286.888 441.8 284.854 442.333 283.388 443.4C281.988 444.467 281.288 445.933 281.288 447.8C281.288 449.733 282.021 451.2 283.488 452.2C284.954 453.133 287.554 453.867 291.288 454.4C297.021 455.2 301.554 456.3 304.888 457.7C308.221 459.1 310.621 460.867 312.087 463C313.554 465.133 314.288 467.8 314.288 471C314.288 476.133 312.154 480.133 307.888 483C303.621 485.8 297.754 487.2 290.288 487.2ZM323.537 432.4H338.538V486H323.537V432.4ZM323.238 413.8H338.738V425.8H323.238V413.8ZM370.933 486C365.399 486 361.333 484.733 358.733 482.2C356.133 479.6 354.833 475.5 354.833 469.9V443.6H346.233V432.4H354.833V419.8H369.833V432.4H383.933V443.6H369.833V468.1C369.833 470.633 370.366 472.4 371.433 473.4C372.499 474.333 374.166 474.8 376.433 474.8H383.933V486H370.933ZM416.685 487.2C411.285 487.2 406.552 486.067 402.485 483.8C398.418 481.467 395.252 478.2 392.985 474C390.785 469.733 389.685 464.8 389.685 459.2C389.685 453.6 390.785 448.7 392.985 444.5C395.185 440.233 398.318 436.967 402.385 434.7C406.452 432.367 411.185 431.2 416.585 431.2C421.852 431.2 426.452 432.367 430.385 434.7C434.385 437.033 437.452 440.4 439.585 444.8C441.718 449.133 442.785 454.267 442.785 460.2V463.2H405.185C405.318 467.333 406.418 470.467 408.485 472.6C410.552 474.733 413.385 475.8 416.985 475.8C422.185 475.8 425.518 473.633 426.985 469.3L442.085 470.2C440.618 475.533 437.618 479.7 433.085 482.7C428.618 485.7 423.152 487.2 416.685 487.2ZM427.485 454C427.285 450.2 426.218 447.3 424.285 445.3C422.352 443.3 419.785 442.3 416.585 442.3C413.452 442.3 410.852 443.333 408.785 445.4C406.785 447.467 405.585 450.333 405.185 454H427.485ZM464.619 463.6C464.619 458.267 465.352 454.167 466.819 451.3C468.285 448.433 470.819 446.133 474.419 444.4C476.885 443.133 478.719 442.033 479.919 441.1C481.119 440.1 481.919 439.1 482.319 438.1C482.785 437.1 483.019 435.8 483.019 434.2C483.019 431.667 482.185 429.633 480.519 428.1C478.852 426.567 476.552 425.8 473.619 425.8C466.752 425.8 462.952 429.433 462.219 436.7L446.619 435.9C447.219 429.167 449.885 423.733 454.619 419.6C459.352 415.467 465.685 413.4 473.619 413.4C478.819 413.4 483.285 414.3 487.019 416.1C490.752 417.9 493.552 420.367 495.419 423.5C497.352 426.633 498.319 430.2 498.319 434.2C498.319 438.4 497.419 441.733 495.619 444.2C493.819 446.6 490.619 449.133 486.019 451.8C483.485 453.267 481.752 454.833 480.819 456.5C479.885 458.167 479.419 460.533 479.419 463.6H464.619ZM463.919 470.7H480.119V486H463.919V470.7Z" fill="white"/>
</svg>
